<?xml version="1.0" encoding="UTF-8" standalone="no"?>
<svg
   xmlns:dc="http://purl.org/dc/elements/1.1/"
   xmlns:cc="http://creativecommons.org/ns#"
   xmlns:rdf="http://www.w3.org/1999/02/22-rdf-syntax-ns#"
   xmlns:svg="http://www.w3.org/2000/svg"
   xmlns="http://www.w3.org/2000/svg"
   height="75.800003"
   width="218.39999"
   id="svg270"
   xml:space="preserve"
   viewBox="0 0 218.39999 75.800002"
   y="0px"
   x="0px"
   version="1.1"><metadata
   id="metadata276"><rdf:RDF><cc:Work
       rdf:about=""><dc:format>image/svg+xml</dc:format><dc:type
         rdf:resource="http://purl.org/dc/dcmitype/StillImage" /><dc:title></dc:title></cc:Work></rdf:RDF></metadata><defs
   id="defs274">
	
	
	

	
	
	
</defs>
<style
   id="style2"
   type="text/css">
	.st0{fill:#FFFFFF;}
	.st1{fill:#36A9E1;}
	.st2{fill:#152D4A;}
	.st3{fill-rule:evenodd;clip-rule:evenodd;fill:#152F4E;}
	.st4{fill:#152F4E;}
	.st5{fill-rule:evenodd;clip-rule:evenodd;fill:#FFFFFF;}
</style>
<rect
   class="st0"
   width="280.60001"
   height="120.4"
   id="rect4"
   x="-32.682217"
   y="153.3362"
   style="fill:#ffffff" />
<g
   id="g95"
   transform="translate(-31.2,-31.2)">
		<g
   id="g51">
			<path
   class="st3"
   d="M 56.3,31.2 31.2,45.7 v 29 L 56.3,89.2 81.4,74.7 v -29 z m 0.1,6.3 5.9,3.4 -17.2,9.9 -5.9,-3.4 z M 36.6,52 62.4,66.9 56.4,70.3 36.6,58.9 Z m 0,19.8 V 65 l 14.5,8.4 -6,3.4 z m 19.8,11.5 -6,-3.4 17.2,-9.9 6,3.4 z M 76.3,68.8 50.5,53.9 l 6,-3.4 19.8,11.4 z m 0,-13 -14.5,-8.4 6,-3.4 8.6,5 v 6.8 z"
   id="path11"
   style="clip-rule:evenodd;fill:#152f4e;fill-rule:evenodd" />
			<g
   id="g49">
				<g
   id="g35">
					<path
   class="st4"
   d="m 100.8,82.4 c -2.4,0 -4.4,-0.8 -6,-2.4 -1.5,-1.6 -2.3,-3.8 -2.3,-6.5 V 73 c 0,-1.8 0.3,-3.4 1,-4.8 0.7,-1.4 1.6,-2.5 2.9,-3.3 1.2,-0.8 2.6,-1.2 4,-1.2 2.3,0 4.2,0.8 5.5,2.3 1.3,1.5 2,3.8 2,6.6 V 74 H 95.6 c 0,1.8 0.6,3.2 1.6,4.3 1,1.1 2.3,1.6 3.8,1.6 1.1,0 2,-0.2 2.8,-0.7 0.8,-0.4 1.4,-1 2,-1.8 l 1.9,1.5 c -1.6,2.4 -3.8,3.5 -6.9,3.5 z m -0.4,-16.2 c -1.2,0 -2.3,0.5 -3.1,1.4 -0.8,0.9 -1.4,2.2 -1.6,3.8 h 9.1 v -0.2 c -0.1,-1.6 -0.5,-2.8 -1.3,-3.6 -0.7,-0.9 -1.8,-1.4 -3.1,-1.4 z"
   id="path13"
   style="fill:#152f4e" />
					<path
   class="st4"
   d="m 112.9,64 0.1,2.3 c 1.4,-1.7 3.2,-2.6 5.4,-2.6 3.8,0 5.7,2.2 5.8,6.5 v 11.9 h -3.1 v -12 c 0,-1.3 -0.3,-2.3 -0.9,-2.9 -0.6,-0.6 -1.5,-0.9 -2.7,-0.9 -1,0 -1.9,0.3 -2.6,0.8 -0.8,0.5 -1.3,1.2 -1.8,2.1 V 82.1 H 110 V 64 Z"
   id="path15"
   style="fill:#152f4e" />
					<path
   class="st4"
   d="m 126.4,72.9 c 0,-2.8 0.7,-5.1 2,-6.7 1.3,-1.7 3,-2.5 5.2,-2.5 2.2,0 3.9,0.8 5.2,2.3 l 0.2,-2 h 2.8 v 17.6 c 0,2.3 -0.7,4.2 -2.1,5.5 -1.4,1.3 -3.2,2 -5.6,2 -1.3,0 -2.6,-0.3 -3.8,-0.8 -1.2,-0.6 -2.2,-1.3 -2.9,-2.3 l 1.6,-1.9 c 1.3,1.6 2.9,2.5 4.9,2.5 1.5,0 2.7,-0.4 3.5,-1.3 0.8,-0.8 1.3,-2 1.3,-3.6 v -1.6 c -1.2,1.4 -2.9,2.1 -5.1,2.1 -2.1,0 -3.8,-0.9 -5.1,-2.6 -1.5,-1.4 -2.1,-3.7 -2.1,-6.7 z m 3.1,0.4 c 0,2 0.4,3.6 1.3,4.8 0.8,1.2 2,1.7 3.5,1.7 1.9,0 3.4,-0.9 4.3,-2.7 v -8.3 c -0.9,-1.7 -2.4,-2.6 -4.3,-2.6 -1.5,0 -2.7,0.6 -3.5,1.8 -0.9,1.2 -1.3,3 -1.3,5.3 z"
   id="path17"
   style="fill:#152f4e" />
					<path
   class="st4"
   d="m 144.5,59.2 c 0,-0.5 0.2,-0.9 0.5,-1.3 0.3,-0.3 0.8,-0.5 1.4,-0.5 0.6,0 1.1,0.2 1.4,0.5 0.3,0.3 0.5,0.8 0.5,1.3 0,0.5 -0.2,0.9 -0.5,1.3 -0.3,0.3 -0.8,0.5 -1.4,0.5 -0.6,0 -1.1,-0.2 -1.4,-0.5 -0.3,-0.3 -0.5,-0.8 -0.5,-1.3 z m 3.4,22.9 h -3.1 V 64 h 3.1 z"
   id="path19"
   style="fill:#152f4e" />
					<path
   class="st4"
   d="m 153.9,64 0.1,2.3 c 1.4,-1.7 3.2,-2.6 5.4,-2.6 3.8,0 5.7,2.2 5.8,6.5 v 11.9 h -3.1 v -12 c 0,-1.3 -0.3,-2.3 -0.9,-2.9 -0.6,-0.6 -1.5,-0.9 -2.7,-0.9 -1,0 -1.9,0.3 -2.6,0.8 -0.8,0.5 -1.3,1.2 -1.8,2.1 V 82.1 H 151 V 64 Z"
   id="path21"
   style="fill:#152f4e" />
					<path
   class="st4"
   d="m 175.7,82.4 c -2.4,0 -4.4,-0.8 -6,-2.4 -1.5,-1.6 -2.3,-3.8 -2.3,-6.5 V 73 c 0,-1.8 0.3,-3.4 1,-4.8 0.7,-1.4 1.6,-2.5 2.9,-3.3 1.2,-0.8 2.6,-1.2 4,-1.2 2.3,0 4.2,0.8 5.5,2.3 1.3,1.5 2,3.8 2,6.6 V 74 h -12.2 c 0,1.8 0.6,3.2 1.6,4.3 1,1.1 2.3,1.6 3.8,1.6 1.1,0 2,-0.2 2.8,-0.7 0.8,-0.4 1.4,-1 2,-1.8 l 1.9,1.5 c -1.7,2.4 -4,3.5 -7,3.5 z m -0.4,-16.2 c -1.2,0 -2.3,0.5 -3.1,1.4 -0.8,0.9 -1.4,2.2 -1.6,3.8 h 9.1 v -0.2 c -0.1,-1.6 -0.5,-2.8 -1.3,-3.6 -0.8,-0.9 -1.8,-1.4 -3.1,-1.4 z"
   id="path23"
   style="fill:#152f4e" />
					<path
   class="st4"
   d="m 192.3,82.4 c -2.4,0 -4.4,-0.8 -6,-2.4 -1.5,-1.6 -2.3,-3.8 -2.3,-6.5 V 73 c 0,-1.8 0.3,-3.4 1,-4.8 0.7,-1.4 1.6,-2.5 2.9,-3.3 1.2,-0.8 2.6,-1.2 4,-1.2 2.3,0 4.2,0.8 5.5,2.3 1.3,1.5 2,3.8 2,6.6 V 74 h -12.2 c 0,1.8 0.6,3.2 1.6,4.3 1,1.1 2.3,1.6 3.8,1.6 1.1,0 2,-0.2 2.8,-0.7 0.8,-0.4 1.4,-1 2,-1.8 l 1.9,1.5 c -1.7,2.4 -4,3.5 -7,3.5 z m -0.4,-16.2 c -1.2,0 -2.3,0.5 -3.1,1.4 -0.8,0.9 -1.4,2.2 -1.6,3.8 h 9.1 v -0.2 c -0.1,-1.6 -0.5,-2.8 -1.3,-3.6 -0.8,-0.9 -1.8,-1.4 -3.1,-1.4 z"
   id="path25"
   style="fill:#152f4e" />
					<path
   class="st4"
   d="m 210.1,66.8 c -0.5,-0.1 -1,-0.1 -1.5,-0.1 -2,0 -3.4,0.9 -4.1,2.6 v 12.8 h -3.1 V 64 h 3 l 0.1,2.1 c 1,-1.6 2.4,-2.4 4.3,-2.4 0.6,0 1.1,0.1 1.4,0.2 v 2.9 z"
   id="path27"
   style="fill:#152f4e" />
					<path
   class="st4"
   d="m 211.3,59.2 c 0,-0.5 0.2,-0.9 0.5,-1.3 0.3,-0.3 0.8,-0.5 1.4,-0.5 0.6,0 1.1,0.2 1.4,0.5 0.3,0.3 0.5,0.8 0.5,1.3 0,0.5 -0.2,0.9 -0.5,1.3 -0.3,0.3 -0.8,0.5 -1.4,0.5 -0.6,0 -1.1,-0.2 -1.4,-0.5 -0.4,-0.3 -0.5,-0.8 -0.5,-1.3 z m 3.3,22.9 h -3.1 V 64 h 3.1 z"
   id="path29"
   style="fill:#152f4e" />
					<path
   class="st4"
   d="m 220.7,64 0.1,2.3 c 1.4,-1.7 3.2,-2.6 5.4,-2.6 3.8,0 5.7,2.2 5.8,6.5 v 11.9 h -3.1 v -12 c 0,-1.3 -0.3,-2.3 -0.9,-2.9 -0.6,-0.6 -1.5,-0.9 -2.7,-0.9 -1,0 -1.9,0.3 -2.6,0.8 -0.8,0.5 -1.3,1.2 -1.8,2.1 v 12.9 h -3.1 V 64 Z"
   id="path31"
   style="fill:#152f4e" />
					<path
   class="st4"
   d="m 234.2,72.9 c 0,-2.8 0.7,-5.1 2,-6.7 1.3,-1.7 3,-2.5 5.2,-2.5 2.2,0 3.9,0.8 5.2,2.3 l 0.2,-2 h 2.8 v 17.6 c 0,2.3 -0.7,4.2 -2.1,5.5 -1.4,1.3 -3.2,2 -5.6,2 -1.3,0 -2.6,-0.3 -3.8,-0.8 -1.2,-0.6 -2.2,-1.3 -2.9,-2.3 l 1.6,-1.9 c 1.3,1.6 2.9,2.5 4.9,2.5 1.5,0 2.7,-0.4 3.5,-1.3 0.8,-0.8 1.3,-2 1.3,-3.6 v -1.6 c -1.2,1.4 -2.9,2.1 -5.1,2.1 -2.1,0 -3.8,-0.9 -5.1,-2.6 -1.5,-1.4 -2.1,-3.7 -2.1,-6.7 z m 3.1,0.4 c 0,2 0.4,3.6 1.3,4.8 0.8,1.2 2,1.7 3.5,1.7 1.9,0 3.4,-0.9 4.3,-2.7 v -8.3 c -0.9,-1.7 -2.4,-2.6 -4.3,-2.6 -1.5,0 -2.7,0.6 -3.5,1.8 -0.9,1.2 -1.3,3 -1.3,5.3 z"
   id="path33"
   style="fill:#152f4e" />
				</g>
				<g
   id="g47">
					<path
   class="st4"
   d="m 103.2,48.7 c 0,-0.6 -0.3,-1.1 -0.9,-1.4 -0.6,-0.3 -1.5,-0.6 -2.8,-0.9 -4.3,-0.9 -6.4,-2.7 -6.4,-5.5 0,-1.6 0.7,-2.9 2,-4 1.3,-1.1 3.1,-1.6 5.2,-1.6 2.3,0 4.1,0.5 5.5,1.6 1.4,1.1 2.1,2.5 2.1,4.2 h -4.8 c 0,-0.7 -0.2,-1.3 -0.7,-1.7 -0.4,-0.5 -1.1,-0.7 -2.1,-0.7 -0.8,0 -1.4,0.2 -1.9,0.6 -0.4,0.4 -0.7,0.8 -0.7,1.4 0,0.5 0.3,1 0.8,1.3 0.5,0.3 1.4,0.6 2.6,0.9 1.2,0.2 2.2,0.5 3,0.8 2.5,0.9 3.8,2.6 3.8,4.9 0,1.6 -0.7,3 -2.1,4 -1.4,1 -3.2,1.5 -5.5,1.5 -1.5,0 -2.9,-0.3 -4,-0.8 -1.2,-0.5 -2.1,-1.3 -2.8,-2.2 -0.7,-0.9 -1,-2 -1,-3 h 4.6 c 0,0.9 0.4,1.5 1,2 0.6,0.5 1.4,0.7 2.4,0.7 0.9,0 1.6,-0.2 2.1,-0.5 0.4,-0.6 0.6,-1 0.6,-1.6 z"
   id="path37"
   style="fill:#152f4e" />
					<path
   class="st4"
   d="m 124.8,47.1 2.4,-11.5 h 4.7 l -4.6,18.1 h -4 l -3.4,-11.4 -3.4,11.4 h -4 l -4.6,-18.1 h 4.7 l 2.4,11.5 3.3,-11.5 h 3.5 z"
   id="path39"
   style="fill:#152f4e" />
					<path
   class="st4"
   d="m 142.6,53.7 c -0.2,-0.4 -0.4,-1 -0.5,-1.6 -1.2,1.3 -2.7,2 -4.6,2 -1.8,0 -3.2,-0.5 -4.4,-1.5 -1.2,-1 -1.7,-2.3 -1.7,-3.9 0,-1.9 0.7,-3.4 2.1,-4.4 1.4,-1 3.5,-1.5 6.2,-1.6 h 2.2 v -1 c 0,-0.8 -0.2,-1.5 -0.6,-2 -0.4,-0.5 -1.1,-0.8 -2,-0.8 -0.8,0 -1.5,0.2 -1.9,0.6 -0.5,0.4 -0.7,0.9 -0.7,1.6 h -4.8 c 0,-1 0.3,-2 1,-2.9 0.6,-0.9 1.6,-1.6 2.7,-2.1 1.2,-0.5 2.5,-0.8 4,-0.8 2.2,0 4,0.6 5.3,1.7 1.3,1.1 2,2.7 2,4.7 v 7.8 c 0,1.7 0.3,3 0.7,3.9 v 0.3 z m -3.9,-3.4 c 0.7,0 1.4,-0.2 2,-0.5 0.6,-0.3 1,-0.7 1.3,-1.3 v -3.1 h -1.8 c -2.4,0 -3.7,0.8 -3.9,2.5 v 0.3 c 0,0.6 0.2,1.1 0.6,1.5 0.4,0.4 1,0.6 1.8,0.6 z"
   id="path41"
   style="fill:#152f4e" />
					<path
   class="st4"
   d="m 154.7,31.2 v 4.4 h 3.1 v 3.5 h -3.1 v 9 c 0,0.7 0.1,1.1 0.4,1.4 0.3,0.3 0.7,0.4 1.5,0.4 0.5,0 1,0 1.4,-0.1 v 3.7 c -1,0.4 -2,0.5 -3,0.5 -3.4,0 -5.1,-1.7 -5.2,-5.1 v -9.7 h -2.6 v -3.5 h 2.6 v -4.4 h 4.9 z"
   id="path43"
   style="fill:#152f4e" />
					<polygon
   class="st3"
   points="163.1,48.2 160.1,50 160.1,53.5 163.1,55.3 166.2,53.5 166.2,50 "
   id="polygon45"
   style="clip-rule:evenodd;fill:#152f4e;fill-rule:evenodd" />
				</g>
			</g>
		</g>
		<g
   id="g93">
			<g
   id="g91">
				<path
   class="st1"
   d="m 95.6,103.3 c 0.4,0 0.8,-0.1 1.1,-0.4 0.3,-0.3 0.5,-0.6 0.5,-1 h 1.1 c 0,0.4 -0.2,0.8 -0.4,1.2 -0.3,0.4 -0.6,0.7 -1,0.9 -0.4,0.2 -0.9,0.3 -1.4,0.3 -1,0 -1.7,-0.3 -2.3,-1 -0.6,-0.6 -0.9,-1.5 -0.9,-2.6 v -0.2 c 0,-0.7 0.1,-1.3 0.4,-1.8 0.3,-0.5 0.6,-1 1.1,-1.3 0.5,-0.3 1,-0.4 1.7,-0.4 0.8,0 1.5,0.2 2,0.7 0.5,0.5 0.8,1.1 0.8,1.9 h -1.1 c 0,-0.5 -0.2,-0.8 -0.5,-1.1 -0.3,-0.3 -0.7,-0.4 -1.2,-0.4 -0.6,0 -1.1,0.2 -1.4,0.7 -0.3,0.4 -0.5,1.1 -0.5,1.9 v 0.2 c 0,0.8 0.2,1.4 0.5,1.9 0.4,0.2 0.9,0.5 1.5,0.5 z"
   id="path53"
   style="fill:#36a9e1" />
				<path
   class="st1"
   d="m 99,100.5 c 0,-0.7 0.1,-1.3 0.4,-1.9 0.3,-0.6 0.7,-1 1.1,-1.3 0.5,-0.3 1,-0.5 1.7,-0.5 1,0 1.7,0.3 2.3,1 0.6,0.7 0.9,1.6 0.9,2.7 v 0.1 c 0,0.7 -0.1,1.3 -0.4,1.9 -0.3,0.5 -0.6,1 -1.1,1.3 -0.5,0.3 -1.1,0.5 -1.7,0.5 -1,0 -1.7,-0.3 -2.3,-1 -0.6,-0.7 -0.9,-1.6 -0.9,-2.8 z m 1.2,0.1 c 0,0.8 0.2,1.4 0.5,1.9 0.4,0.5 0.9,0.7 1.5,0.7 0.6,0 1.1,-0.2 1.5,-0.7 0.4,-0.5 0.5,-1.2 0.5,-2 0,-0.8 -0.2,-1.4 -0.6,-1.9 -0.4,-0.5 -0.9,-0.7 -1.5,-0.7 -0.6,0 -1.1,0.2 -1.4,0.7 -0.3,0.5 -0.5,1.2 -0.5,2 z"
   id="path55"
   style="fill:#36a9e1" />
				<path
   class="st1"
   d="m 107.7,97 v 0.9 c 0.5,-0.7 1.2,-1 2.1,-1 1.5,0 2.3,0.8 2.3,2.5 v 4.7 h -1.2 v -4.7 c 0,-0.5 -0.1,-0.9 -0.4,-1.1 -0.2,-0.2 -0.6,-0.4 -1.1,-0.4 -0.4,0 -0.7,0.1 -1,0.3 -0.3,0.2 -0.5,0.5 -0.7,0.8 v 5.1 h -1.2 V 97 Z"
   id="path57"
   style="fill:#36a9e1" />
				<path
   class="st1"
   d="M 115.1,95.3 V 97 h 1.3 v 1 h -1.3 v 4.4 c 0,0.3 0.1,0.5 0.2,0.6 0.1,0.1 0.3,0.2 0.6,0.2 0.1,0 0.3,0 0.6,-0.1 v 1 c -0.3,0.1 -0.6,0.1 -0.9,0.1 -0.5,0 -1,-0.2 -1.2,-0.5 -0.3,-0.3 -0.4,-0.8 -0.4,-1.4 V 98 h -1.3 v -1 h 1.3 v -1.7 z"
   id="path59"
   style="fill:#36a9e1" />
				<path
   class="st1"
   d="m 120.7,98.1 c -0.2,0 -0.4,0 -0.6,0 -0.8,0 -1.3,0.3 -1.6,1 v 5 h -1.2 V 97 h 1.2 v 0.8 c 0.4,-0.6 1,-1 1.7,-1 0.2,0 0.4,0 0.5,0.1 z"
   id="path61"
   style="fill:#36a9e1" />
				<path
   class="st1"
   d="m 121,100.5 c 0,-0.7 0.1,-1.3 0.4,-1.9 0.3,-0.6 0.7,-1 1.1,-1.3 0.5,-0.3 1,-0.5 1.7,-0.5 1,0 1.7,0.3 2.3,1 0.6,0.7 0.9,1.6 0.9,2.7 v 0.1 c 0,0.7 -0.1,1.3 -0.4,1.9 -0.3,0.5 -0.6,1 -1.1,1.3 -0.5,0.3 -1.1,0.5 -1.7,0.5 -1,0 -1.7,-0.3 -2.3,-1 -0.6,-0.7 -0.9,-1.6 -0.9,-2.8 z m 1.2,0.1 c 0,0.8 0.2,1.4 0.5,1.9 0.4,0.5 0.9,0.7 1.5,0.7 0.6,0 1.1,-0.2 1.5,-0.7 0.4,-0.5 0.5,-1.2 0.5,-2 0,-0.8 -0.2,-1.4 -0.6,-1.9 -0.4,-0.5 -0.9,-0.7 -1.5,-0.7 -0.6,0 -1.1,0.2 -1.4,0.7 -0.3,0.5 -0.5,1.2 -0.5,2 z"
   id="path63"
   style="fill:#36a9e1" />
				<path
   class="st1"
   d="m 129.7,104.1 h -1.2 V 94 h 1.2 z"
   id="path65"
   style="fill:#36a9e1" />
				<path
   class="st1"
   d="M 136.4,102.3 138,97 h 1.3 l -2.9,8.2 c -0.4,1.2 -1.1,1.8 -2.1,1.8 h -0.2 l -0.5,-0.1 v -1 h 0.3 c 0.4,0 0.7,-0.1 1,-0.2 0.2,-0.2 0.4,-0.5 0.6,-0.9 l 0.3,-0.7 -2.5,-7 h 1.3 z"
   id="path67"
   style="fill:#36a9e1" />
				<path
   class="st1"
   d="m 139.4,100.5 c 0,-0.7 0.1,-1.3 0.4,-1.9 0.3,-0.6 0.7,-1 1.1,-1.3 0.5,-0.3 1,-0.5 1.7,-0.5 1,0 1.7,0.3 2.3,1 0.6,0.7 0.9,1.6 0.9,2.7 v 0.1 c 0,0.7 -0.1,1.3 -0.4,1.9 -0.3,0.5 -0.6,1 -1.1,1.3 -0.5,0.3 -1.1,0.5 -1.7,0.5 -1,0 -1.7,-0.3 -2.3,-1 -0.6,-0.7 -0.9,-1.6 -0.9,-2.8 z m 1.2,0.1 c 0,0.8 0.2,1.4 0.5,1.9 0.4,0.5 0.9,0.7 1.5,0.7 0.6,0 1.1,-0.2 1.5,-0.7 0.4,-0.5 0.5,-1.2 0.5,-2 0,-0.8 -0.2,-1.4 -0.6,-1.9 -0.4,-0.5 -0.9,-0.7 -1.5,-0.7 -0.6,0 -1.1,0.2 -1.4,0.7 -0.3,0.5 -0.5,1.2 -0.5,2 z"
   id="path69"
   style="fill:#36a9e1" />
				<path
   class="st1"
   d="m 151.3,103.4 c -0.5,0.6 -1.2,0.8 -2.1,0.8 -0.8,0 -1.3,-0.2 -1.7,-0.7 -0.4,-0.4 -0.6,-1.1 -0.6,-1.9 V 97 h 1.2 v 4.6 c 0,1.1 0.4,1.6 1.3,1.6 0.9,0 1.5,-0.3 1.8,-1 V 97 h 1.2 v 7.1 h -1.2 z"
   id="path71"
   style="fill:#36a9e1" />
				<path
   class="st1"
   d="m 157.3,98.1 c -0.2,0 -0.4,0 -0.6,0 -0.8,0 -1.3,0.3 -1.6,1 v 5 h -1.2 V 97 h 1.2 v 0.8 c 0.4,-0.6 1,-1 1.7,-1 0.2,0 0.4,0 0.5,0.1 z"
   id="path73"
   style="fill:#36a9e1" />
				<path
   class="st1"
   d="m 164.9,102.2 c 0,-0.3 -0.1,-0.6 -0.4,-0.8 -0.2,-0.2 -0.7,-0.3 -1.3,-0.5 -0.6,-0.1 -1.1,-0.3 -1.5,-0.5 -0.4,-0.2 -0.6,-0.4 -0.8,-0.7 -0.2,-0.3 -0.3,-0.6 -0.3,-0.9 0,-0.6 0.2,-1.1 0.7,-1.5 0.5,-0.4 1.1,-0.6 1.9,-0.6 0.8,0 1.5,0.2 2,0.6 0.5,0.4 0.8,0.9 0.8,1.6 h -1.2 c 0,-0.3 -0.1,-0.6 -0.4,-0.9 -0.3,-0.2 -0.6,-0.4 -1.1,-0.4 -0.4,0 -0.8,0.1 -1,0.3 -0.2,0.2 -0.4,0.4 -0.4,0.8 0,0.3 0.1,0.5 0.3,0.7 0.2,0.2 0.7,0.3 1.3,0.4 0.6,0.1 1.1,0.3 1.5,0.5 0.4,0.2 0.7,0.4 0.8,0.7 0.2,0.3 0.3,0.6 0.3,1 0,0.6 -0.3,1.1 -0.8,1.5 -0.5,0.4 -1.2,0.6 -2,0.6 -0.6,0 -1.1,-0.1 -1.5,-0.3 -0.4,-0.2 -0.8,-0.5 -1,-0.8 -0.2,-0.4 -0.4,-0.8 -0.4,-1.2 h 1.2 c 0,0.4 0.2,0.7 0.5,1 0.3,0.2 0.7,0.4 1.2,0.4 0.5,0 0.8,-0.1 1.1,-0.3 0.4,-0.1 0.5,-0.4 0.5,-0.7 z"
   id="path75"
   style="fill:#36a9e1" />
				<path
   class="st1"
   d="m 166.8,100.5 c 0,-0.7 0.1,-1.3 0.4,-1.9 0.3,-0.6 0.7,-1 1.1,-1.3 0.5,-0.3 1,-0.5 1.7,-0.5 1,0 1.7,0.3 2.3,1 0.6,0.7 0.9,1.6 0.9,2.7 v 0.1 c 0,0.7 -0.1,1.3 -0.4,1.9 -0.3,0.5 -0.6,1 -1.1,1.3 -0.5,0.3 -1.1,0.5 -1.7,0.5 -1,0 -1.7,-0.3 -2.3,-1 -0.6,-0.7 -0.9,-1.6 -0.9,-2.8 z m 1.2,0.1 c 0,0.8 0.2,1.4 0.5,1.9 0.4,0.5 0.9,0.7 1.5,0.7 0.6,0 1.1,-0.2 1.5,-0.7 0.4,-0.5 0.5,-1.2 0.5,-2 0,-0.8 -0.2,-1.4 -0.6,-1.9 -0.4,-0.5 -0.9,-0.7 -1.5,-0.7 -0.6,0 -1.1,0.2 -1.4,0.7 -0.3,0.5 -0.5,1.2 -0.5,2 z"
   id="path77"
   style="fill:#36a9e1" />
				<path
   class="st1"
   d="M 174.7,104.1 V 98 h -1.1 v -1 h 1.1 v -0.7 c 0,-0.8 0.2,-1.3 0.6,-1.8 0.4,-0.4 1,-0.6 1.7,-0.6 0.3,0 0.6,0 0.8,0.1 l -0.1,1 c -0.2,0 -0.4,-0.1 -0.7,-0.1 -0.4,0 -0.7,0.1 -0.9,0.3 -0.2,0.2 -0.3,0.6 -0.3,1 V 97 h 1.5 v 1 h -1.5 v 6.2 h -1.1 z"
   id="path79"
   style="fill:#36a9e1" />
				<path
   class="st1"
   d="M 180.3,95.3 V 97 h 1.3 v 1 h -1.3 v 4.4 c 0,0.3 0.1,0.5 0.2,0.6 0.1,0.1 0.3,0.2 0.6,0.2 0.1,0 0.3,0 0.6,-0.1 v 1 c -0.3,0.1 -0.6,0.1 -0.9,0.1 -0.5,0 -1,-0.2 -1.2,-0.5 -0.3,-0.3 -0.4,-0.8 -0.4,-1.4 V 98 h -1.3 v -1 h 1.3 v -1.7 z"
   id="path81"
   style="fill:#36a9e1" />
				<path
   class="st1"
   d="m 189,102.4 1.4,-5.4 h 1.2 l -2.1,7.1 h -1 l -1.7,-5.4 -1.7,5.4 h -1 L 182,97 h 1.2 l 1.4,5.3 1.7,-5.3 h 1 z"
   id="path83"
   style="fill:#36a9e1" />
				<path
   class="st1"
   d="m 196.6,104.1 c -0.1,-0.1 -0.1,-0.4 -0.2,-0.7 -0.6,0.6 -1.2,0.9 -2,0.9 -0.7,0 -1.3,-0.2 -1.7,-0.6 -0.4,-0.4 -0.7,-0.9 -0.7,-1.5 0,-0.7 0.3,-1.3 0.8,-1.7 0.6,-0.4 1.4,-0.6 2.4,-0.6 h 1.2 v -0.6 c 0,-0.4 -0.1,-0.8 -0.4,-1 -0.3,-0.3 -0.6,-0.4 -1.1,-0.4 -0.4,0 -0.8,0.1 -1.1,0.3 -0.3,0.2 -0.4,0.5 -0.4,0.8 h -1.2 c 0,-0.4 0.1,-0.7 0.4,-1 0.3,-0.3 0.6,-0.6 1,-0.8 0.4,-0.2 0.9,-0.3 1.4,-0.3 0.8,0 1.5,0.2 1.9,0.6 0.5,0.4 0.7,1 0.7,1.7 v 3.3 c 0,0.7 0.1,1.2 0.2,1.6 v 0.1 h -1.2 z m -2,-0.9 c 0.4,0 0.7,-0.1 1.1,-0.3 0.3,-0.2 0.6,-0.5 0.7,-0.8 v -1.5 h -1 c -1.5,0 -2.2,0.4 -2.2,1.3 0,0.4 0.1,0.7 0.4,0.9 0.2,0.3 0.6,0.4 1,0.4 z"
   id="path85"
   style="fill:#36a9e1" />
				<path
   class="st1"
   d="m 202.4,98.1 c -0.2,0 -0.4,0 -0.6,0 -0.8,0 -1.3,0.3 -1.6,1 v 5 H 199 V 97 h 1.2 v 0.8 c 0.4,-0.6 1,-1 1.7,-1 0.2,0 0.4,0 0.5,0.1 z"
   id="path87"
   style="fill:#36a9e1" />
				<path
   class="st1"
   d="m 205.9,104.2 c -1,0 -1.7,-0.3 -2.3,-0.9 -0.6,-0.6 -0.9,-1.5 -0.9,-2.5 v -0.2 c 0,-0.7 0.1,-1.3 0.4,-1.9 0.3,-0.6 0.6,-1 1.1,-1.3 0.5,-0.3 1,-0.5 1.6,-0.5 0.9,0 1.6,0.3 2.1,0.9 0.5,0.6 0.8,1.5 0.8,2.6 v 0.5 h -4.8 c 0,0.7 0.2,1.3 0.6,1.7 0.4,0.4 0.9,0.6 1.5,0.6 0.4,0 0.8,-0.1 1.1,-0.3 0.3,-0.2 0.6,-0.4 0.8,-0.7 l 0.7,0.6 c -0.6,1 -1.5,1.4 -2.7,1.4 z m -0.1,-6.3 c -0.5,0 -0.9,0.2 -1.2,0.5 -0.3,0.4 -0.5,0.9 -0.6,1.5 h 3.6 v -0.1 c 0,-0.6 -0.2,-1.1 -0.5,-1.4 -0.4,-0.3 -0.8,-0.5 -1.3,-0.5 z"
   id="path89"
   style="fill:#36a9e1" />
			</g>
		</g>
	</g>
</svg>